<svg xmlns="http://www.w3.org/2000/svg" viewBox="0 0 325 185" width="325" height="185">
<rect width="100%" height="100%" fill="black"/>
<polygon points="174,160 176,160 177,161 177,164 175,166 174,166 173,165 173,161" fill="#c8a76a" stroke="none"/>
<polygon points="172,159 172,164 173,165 173,166 176,166 177,165 177,164 178,163 178,162 177,161 177,160 176,160 175,159" fill="#c8a76a" stroke="none"/>
<polygon points="128,156 130,158 130,160 127,163 125,161 125,158 127,156" fill="#c8a76a" stroke="none"/>
<polygon points="126,156 124,158 124,161 126,163 128,163 130,161 130,158 128,156" fill="#c8a76a" stroke="none"/>
<polygon points="228,143 229,143 231,145 231,147 229,149 228,149 227,148 227,147 226,146 226,145" fill="#c8a76a" stroke="none"/>
<polygon points="227,143 226,144 225,144 225,145 226,146 226,147 227,148 227,149 228,150 229,150 231,148 231,145 230,144 230,143" fill="#c8a76a" stroke="none"/>
<polygon points="144,125 145,124 146,124 147,125 152,125 153,124 155,124 156,123 158,123 160,121 161,122 162,122 163,123 164,123 165,124 167,124 168,125 173,125 174,124 175,124 176,125 174,127 173,127 172,128 169,128 169,131 168,132 167,131 167,130 166,129 165,129 164,128 157,128 156,129 155,129 154,130 154,131 153,132 152,131 152,128 148,128 147,127 146,127" fill="#c8a76a" stroke="none"/>
<polygon points="141,116 140,118 140,121 142,124 142,126 141,127 141,131 142,132 142,134 144,138 145,136 146,137 146,139 147,141 150,144 154,146 155,144 156,146 159,149 161,149 166,145 167,146 169,145 174,140 174,139 176,137 177,137 179,133 179,124 180,123 180,117 179,117 179,120 175,123 173,122 171,122 167,118 165,117 162,117 160,119 158,117 155,117 149,122 147,123 145,123 141,120" fill="#c8a76a" stroke="none"/>
<polygon points="166,86 167,87 167,98 165,100 164,100 161,97 161,91" fill="#c8a76a" stroke="none"/>
<polygon points="91,86 92,87 92,97 89,100 88,100 86,98 86,97 85,96 85,93 86,92 86,90 90,86" fill="#c8a76a" stroke="none"/>
<polygon points="59,82 63,82 67,86 67,96 66,97 66,98 64,100 63,100 62,101 60,101 58,99 58,83" fill="#c8a76a" stroke="none"/>
<polygon points="260,75 262,75 264,77 264,78 265,79 265,95 264,96 264,98 261,101 260,101 258,99 258,95 257,94 257,82 258,81 257,80 258,79 258,77" fill="#c8a76a" stroke="none"/>
<polygon points="139,75 140,75 143,78 143,97 142,98 142,99 140,101 139,101 136,98 136,78" fill="#c8a76a" stroke="none"/>
<polygon points="222,72 221,74 223,76 223,99 224,101 227,104 232,104 236,101 238,104 240,104 241,103 242,104 243,103 246,103 246,102 244,100 244,71 240,71 239,72 236,72 235,73 235,74 237,75 237,97 235,99 232,99 230,97 230,71" fill="#c8a76a" stroke="none"/>
<polygon points="161,71 160,72 159,72 156,75 156,76 155,77 155,79 156,80 156,81 157,82 160,82 162,80 162,77 161,76 161,75 163,73 164,73 167,76 167,82 164,85 162,85 156,89 156,90 154,93 154,99 155,100 155,101 158,104 164,104 167,101 170,104 175,104 177,102 177,100 176,101 174,99 174,77 173,76 173,75 170,72 169,72 168,71" fill="#c8a76a" stroke="none"/>
<polygon points="122,71 118,71 117,72 116,72 116,73 114,75 113,74 113,71 110,71 109,72 105,72 104,73 104,74 106,76 106,101 104,103 104,104 115,104 116,103 113,100 113,80 114,79 114,78 117,75 119,77 118,78 118,81 120,83 123,82 125,79 125,76 124,75 124,73" fill="#c8a76a" stroke="none"/>
<polygon points="85,71 84,72 83,72 80,75 80,81 81,82 85,82 86,81 86,77 85,76 85,75 87,73 89,73 92,77 92,82 90,84 83,87 79,91 79,93 78,94 78,98 79,99 79,101 83,104 88,104 91,101 92,101 94,104 99,104 102,101 102,100 101,100 100,101 99,100 99,79 98,78 98,76 97,75 97,74 93,71" fill="#c8a76a" stroke="none"/>
<polygon points="59,61 62,61 66,65 66,74 65,75 65,76 64,77 63,77 62,78 59,78 58,77 58,62" fill="#c8a76a" stroke="none"/>
<polygon points="249,60 248,61 251,65 251,102 250,103 250,104 253,104 255,102 257,102 259,104 265,104 268,102 268,101 270,99 270,98 271,97 271,95 272,94 272,79 271,78 271,76 270,75 270,74 266,71 261,71 259,73 258,73 257,72 257,58 256,59 254,59 253,60" fill="#c8a76a" stroke="none"/>
<polygon points="216,58 215,58 214,59 212,59 211,60 208,60 207,61 209,63 209,101 207,103 207,104 218,104 218,102 216,100" fill="#c8a76a" stroke="none"/>
<polygon points="190,58 185,62 182,67 181,75 180,76 180,87 181,88 181,92 182,93 183,98 190,104 197,104 203,99 204,91 202,91 201,96 197,100 193,100 191,98 190,94 189,93 189,81 188,80 189,79 189,68 190,67 191,63 193,61 197,61 201,67 201,70 202,72 203,72 203,58 201,59 198,59 197,58" fill="#c8a76a" stroke="none"/>
<polygon points="135,58 134,59 132,59 131,60 128,60 127,61 127,62 129,64 129,102 128,103 128,104 131,104 134,102 135,102 138,104 143,104 144,103 145,103 148,100 148,99 150,96 150,92 151,91 151,82 150,81 150,78 149,77 149,75 146,72 145,72 144,71 140,71 137,73 136,72 136,58" fill="#c8a76a" stroke="none"/>
<polygon points="48,58 48,60 49,60 50,61 50,101 48,103 48,104 65,104 66,103 69,103 73,100 73,99 75,96 75,92 76,91 75,90 75,87 74,86 74,85 70,81 68,81 67,80 72,76 72,75 74,72 74,66 73,65 73,63 70,60 69,60 68,59 66,59 65,58" fill="#c8a76a" stroke="none"/>
<polygon points="287,56 279,51 277,45 268,46 276,46 279,52 287,57 287,110 279,115 276,122 189,122 277,122 279,116 283,112 287,111" fill="#c8a76a" stroke="none"/>
<polygon points="33,56 33,111 37,112 41,116 43,122 131,122 44,122 40,114 33,110 33,57 38,55 44,46 60,46 43,46 41,51 37,55" fill="#c8a76a" stroke="none"/>
<polygon points="248,46 163,45 160,41 160,35 163,35 161,32 157,35 160,35 160,43 158,45 70,45 157,45 159,47 164,45" fill="#c8a76a" stroke="none"/>
<polygon points="211,29 212,29 214,31 214,33 212,35 210,35 209,34 209,31" fill="#c8a76a" stroke="none"/>
<polygon points="210,29 209,30 209,31 208,32 208,34 209,35 210,35 211,36 212,36 215,33 215,31 213,29" fill="#c8a76a" stroke="none"/>
<polygon points="126,21 127,20 129,20 131,22 131,24 130,25 129,25 128,26 127,25 127,23 126,22" fill="#c8a76a" stroke="none"/>
<polygon points="127,19 126,20 125,20 125,21 126,22 126,24 127,25 127,26 129,26 130,25 131,25 131,21 129,19" fill="#c8a76a" stroke="none"/>
<polygon points="143,16 144,15 146,15 147,16 147,17 148,18 148,19 146,21 145,21 143,19" fill="#c8a76a" stroke="none"/>
<polygon points="154,14 155,14 157,16 157,18 155,20 153,20 152,19 152,16" fill="#c8a76a" stroke="none"/>
<polygon points="147,15 143,15 143,22 145,22 146,21 147,21 148,20 148,16" fill="#c8a76a" stroke="none"/>
<polygon points="153,14 151,16 151,18 152,19 152,20 153,20 154,21 155,21 157,19 157,18 158,17 157,16 157,15 156,14" fill="#c8a76a" stroke="none"/>
</svg>